<svg xmlns="http://www.w3.org/2000/svg" width="34" height="25" viewBox="0 0 34 25"><defs><style>.a{fill:#fff;}</style></defs><title>Photo</title><path class="a" d="M32.943,3.82h-9.1a1.082,1.082,0,0,1-1-.68L21.892.67a1.071,1.071,0,0,0-1-.67h-7.8a1.093,1.093,0,0,0-1,.68l-.945,2.47a1.082,1.082,0,0,1-1,.68H1.062A1.032,1.032,0,0,0,0,4.829V23.96A1.062,1.062,0,0,0,1.062,25H32.937A1.056,1.056,0,0,0,34,23.96V4.83a1.024,1.024,0,0,0-1.039-1.01Zm-16.2,19.62A9.3,9.3,0,1,1,26.3,14.15,9.437,9.437,0,0,1,16.738,23.44ZM17.2,6.92a7.233,7.233,0,1,1-7.438,7.23A7.331,7.331,0,0,1,17.2,6.92Z"/></svg>
